<svg version="1.1" id="Layer_1" xmlns="http://www.w3.org/2000/svg" xmlns:xlink="http://www.w3.org/1999/xlink" x="0px" y="0px"
	 width="100%" viewBox="0 0 70 70" enable-background="new 0 0 70 70" xml:space="preserve">
<path fill="#FFFFFF" opacity="1.000000" stroke="none" 
	d="
M1.329841,50.124001 
	C1.000000,34.706696 1.034735,19.413227 0.960949,4.120280 
	C0.950400,1.933858 1.048944,0.890591 3.864908,0.911748 
	C25.307568,1.072849 46.752693,1.083998 68.195030,0.902889 
	C71.164406,0.877809 71.030594,2.133892 71.024406,4.180265 
	C70.979118,19.140959 71.000000,34.101852 71.000000,49.531342 
	C66.499931,49.347343 63.585030,45.271824 59.013992,44.560867 
	C57.138390,44.269146 57.945061,42.403946 58.663811,41.303619 
	C60.669231,38.233509 61.955193,34.756035 64.138344,31.791771 
	C64.710258,31.015221 65.675522,30.196678 65.104683,29.177790 
	C64.414909,27.946632 63.051842,28.309496 61.925751,28.457060 
	C59.417824,28.785704 57.161507,29.871925 54.879490,30.896942 
	C50.051460,33.065552 49.591194,32.876190 47.816345,27.718536 
	C46.580315,24.126656 45.074291,20.607672 44.860596,16.168238 
	C40.693211,18.741573 39.568172,22.510221 38.300858,26.178213 
	C37.927631,27.258446 37.871510,28.860336 36.599281,28.970428 
	C35.061859,29.103468 34.541111,27.499758 34.047356,26.280800 
	C32.630348,22.782570 31.508377,19.122227 28.044699,16.057512 
	C26.799707,20.577383 25.469311,24.586981 24.135551,28.588015 
	C23.067205,31.792856 21.587706,32.965675 18.293539,31.139244 
	C15.679435,29.689873 12.756889,28.859362 9.773624,28.410259 
	C8.798382,28.263445 7.663697,28.107777 7.004297,29.027063 
	C6.248022,30.081406 7.218388,30.875143 7.762993,31.648771 
	C9.875901,34.650215 11.455839,37.965851 13.358880,41.091263 
	C14.142148,42.377640 14.917432,44.280613 12.725234,44.719700 
	C8.474181,45.571163 5.426688,48.581627 1.329841,50.124001 
z"/>
<path fill="#D09B2C" opacity="1.000000" stroke="none" 
	d="
M1.000000,50.399994 
	C4.760238,47.183483 7.993825,43.314785 14.183945,44.069340 
	C10.281995,39.652203 9.005459,34.398766 5.213464,30.622740 
	C2.667351,28.087347 4.700768,27.248703 7.053021,27.026075 
	C11.658143,26.590231 15.889216,28.305357 19.641882,30.477144 
	C22.017601,31.852049 22.607056,30.873180 22.772804,29.310528 
	C23.258238,24.733912 26.832487,20.953577 26.038876,16.077623 
	C25.918880,15.340367 25.864773,14.374155 26.995445,14.108996 
	C28.111622,13.847239 29.019800,14.279768 29.597544,15.148314 
	C31.300671,17.708710 32.988026,20.253166 34.162800,23.159416 
	C34.874374,24.919767 34.835102,27.098602 36.700977,28.521671 
	C37.057220,23.188334 39.834587,19.094986 42.916935,15.076919 
	C43.715191,14.036331 44.493942,13.820392 45.346264,14.200195 
	C46.361816,14.652740 46.984230,15.304728 46.655186,16.905275 
	C45.611919,21.979916 49.086143,26.101166 50.135132,30.770569 
	C50.535709,32.553680 52.036232,30.943758 52.719334,30.618153 
	C56.412582,28.857752 59.953476,26.782923 64.275635,26.973352 
	C65.658508,27.034281 67.091087,27.021734 67.730675,28.389200 
	C68.364143,29.743555 67.052452,30.506531 66.233139,31.231691 
	C62.411694,34.613998 62.292854,40.266350 57.470737,43.875938 
	C63.510117,43.710155 67.135239,46.354679 70.672226,49.900085 
	C71.000000,51.066669 71.000000,52.133339 71.000000,53.600006 
	C63.544788,55.444534 56.220890,59.709026 48.697323,58.094566 
	C39.955994,56.218792 31.697186,56.387936 23.132483,58.260044 
	C19.565533,59.039726 15.810273,58.171059 12.365820,56.728912 
	C8.929008,55.289970 5.215924,55.279560 1.329058,54.240669 
	C1.000000,52.933331 1.000000,51.866661 1.000000,50.399994 
z"/>
<path fill="#FFFFFF" opacity="1.000000" stroke="none" 
	d="
M1.000000,54.470451 
	C4.725074,52.941601 8.287352,53.741375 11.766813,55.045517 
	C19.640360,57.996620 27.362125,58.327198 34.749901,53.702065 
	C35.807064,53.040230 36.460407,53.143852 37.383064,53.733097 
	C46.075127,59.284203 54.895309,57.224274 63.701992,54.081905 
	C65.898537,53.298141 68.037209,53.184063 70.610779,53.998734 
	C71.000000,58.812744 70.890541,63.629177 71.052635,68.436455 
	C71.119637,70.423859 70.846863,71.080116 68.582710,71.068237 
	C46.842979,70.954224 25.102095,70.946899 3.362525,71.075378 
	C0.971625,71.089500 0.901410,70.255989 0.957076,68.382103 
	C1.090066,63.905228 1.000000,59.421730 1.000000,54.470451 
z"/>
</svg>